<svg xmlns="http://www.w3.org/2000/svg" width="18" height="18" fill="none" viewBox="0 0 18 18"><path fill="currentColor" d="M7.151 5.243a.372.372 0 0 1 .697 0l.733 1.979a3.72 3.72 0 0 0 2.198 2.197l1.978.732a.372.372 0 0 1 0 .698l-1.978.732a3.72 3.72 0 0 0-2.198 2.198l-.733 1.978a.372.372 0 0 1-.697 0l-.732-1.978a3.72 3.72 0 0 0-2.198-2.198l-1.978-.732a.372.372 0 0 1 0-.698L4.22 9.42a3.72 3.72 0 0 0 2.2-2.198zm5.658-3.11a.203.203 0 0 1 .381 0l.4 1.079c.205.555.643.993 1.198 1.198l1.079.4a.203.203 0 0 1 0 .38l-1.08.4a2.03 2.03 0 0 0-1.197 1.198l-.4 1.08a.203.203 0 0 1-.38 0l-.4-1.08a2.03 2.03 0 0 0-1.198-1.198l-1.08-.4a.203.203 0 0 1 0-.38l1.08-.4a2.03 2.03 0 0 0 1.198-1.198z"/></svg>